<?xml version="1.0" encoding="UTF-8"?>
<svg id="katman_1" data-name="katman 1" xmlns="http://www.w3.org/2000/svg" version="1.1" viewBox="0 0 841.89 595.28">
  <defs>
    <style>
      .cls-1 {
        fill: #243367;
        stroke-width: 0px;
      }
    </style>
  </defs>
  <path class="cls-1" d="M145.33,345.43c31.02,0,49.51-18.12,49.51-39.23,0-16.63-10.09-27.28-26.72-33.07,9.35-5.6,17.38-15.88,17.38-28.21,0-19.99-16.63-32.32-45.77-32.32-12.52,0-15.51,1.12-27.28,1.12s-19.61-.93-24.48-.93c-2.98,0-4.48,1.68-4.48,4.11,0,2.06,1.12,3.74,5.04,4.48,10.1,1.49,12.52,3.55,12.52,8.59.19,15.88.37,27.84.37,48.76s0,33.26-.37,49.14c-.19,5.42-2.06,6.91-12.14,7.85-3.92.56-5.04,2.43-5.04,4.48,0,2.43,1.5,4.11,4.48,4.11,7.29,0,14.2-.37,24.1-.37,9.34,0,17.94,1.5,32.88,1.5h0s0-.01,0-.01ZM123.66,229.97c0-3.74.94-5.23,3.74-6.35,2.24-.75,5.6-1.12,10.84-1.12,15.51,0,25.04,8.41,25.04,24.85,0,9.15-2.99,16.81-7.84,22.61-9.54-1.68-20.37-2.24-32.14-1.68,0-14.76,0-25.41.37-38.3h0s0-.01,0-.01ZM131.33,334.04c-5.61-1.31-7.48-3.18-7.67-9.9-.37-14.2-.37-25.22-.37-45.4v-.37c31.77-.75,48.39,6.35,48.39,29.52,0,13.64-9.71,27.28-29.33,27.28-5.05,0-8.23-.37-11.02-1.12h0s0,0,0,0ZM245.27,345.8c16.26,0,27.47-8.03,34.19-16.07,2.99-3.55,1.12-6.73-1.86-6.73-.75,0-1.5.37-2.24.75-7.84,4.86-14.01,7.47-22.42,7.47-18.5,0-29.53-16.25-29.53-34.75v-.37c18.32-2.62,36.25-6.17,54.75-10.46,2.42-.56,4.1-2.43,3.54-5.23-2.98-13.45-15.31-28.21-36.61-28.21s-40.92,19.8-40.92,48.39c0,26.9,17.38,45.21,41.1,45.21h0ZM243.97,261.73c11.96,0,17.37,10.84,17.37,15.13,0,1.49-.75,2.62-2.43,2.99-10.09,2.62-22.23,5.04-34.94,7.29,2.24-17,10.65-25.41,20-25.41h0ZM289.36,344.31c5.98,0,12.33-.56,19.62-.56s15.69.56,21.67.56c2.62,0,3.92-1.68,3.92-3.55,0-2.05-1.11-3.74-4.85-4.3-9.53-1.12-10.46-2.05-10.65-5.98-.37-10.28-.37-19.43-.37-31.39v-15.69c9.71-12.89,14.2-15.51,19.05-15.51,5.8,0,10.65,7.29,13.08,7.29,1.31,0,2.06-.37,2.99-2.24,1.87-3.74,3.73-7.47,5.6-11.4,1.12-2.43.56-3.74-1.68-5.23-4.48-2.99-9.15-5.04-13.82-5.04-8.23,0-15.7,6.91-25.04,22.23,0-6.17.19-12.89.37-20.36,0-2.43-1.5-2.99-3.55-2.43-9.71,2.61-18.87,4.11-26.72,4.67-3.17.37-4.29,1.68-4.29,3.74s1.12,3.55,4.66,4.11c8.23,1.49,9.16,2.43,9.35,6.54.37,9.34.37,19.24.37,29.33,0,11.96,0,21.11-.37,31.39-.19,3.92-.75,4.86-8.98,5.98-3.36.75-4.48,2.24-4.48,4.3,0,1.87,1.31,3.55,4.1,3.55h.02s0,0,0,0ZM358.67,344.31c6.17,0,12.33-.56,19.81-.56s13.82.56,19.99.56c2.8,0,4.1-1.68,4.1-3.55,0-2.05-1.12-3.55-4.48-4.3-8.4-1.31-9.34-1.87-9.34-5.79-.19-5.98-.19-11.96-.19-17.75,4.1-2.62,8.22-5.42,12.14-8.22,7.84,11.77,15.87,23.91,23.72,35.12,2.43,3.55,3.74,4.3,7.67,4.3,5.6,0,12.52-.19,20.55,0,2.81,0,4.3-1.68,4.3-3.74,0-1.87-.75-3.55-4.68-3.92-5.23-.56-8.03-3.18-12.52-8.97-7.84-10.65-16.06-22.79-23.73-34.56,0-.19.19-.19.37-.37,14.39-12.52,23.92-22.05,31.01-31.39.93-1.31,1.5-2.43,1.5-3.55,0-2.24-1.5-3.74-4.48-3.55-8.78.75-16.82.75-26.72.19-3.93-.19-5.04,1.68-5.04,3.55,0,1.68,1.3,3.55,3.92,4.11l3.74.93c6.16,1.5,6.16,6.54-1.5,14.57-8.22,8.78-18.87,17.19-30.45,24.47v-23.17c0-15.51,0-32.51.56-70.25,0-2.43-1.5-2.99-3.55-2.43-9.71,2.43-19.05,3.92-26.72,4.67-3.17.19-4.48,1.68-4.48,3.55,0,2.05,1.31,3.55,4.85,4.11,8.23,1.49,9.15,2.43,9.34,6.73.37,18.87.37,36.62.37,53.62s0,33.82-.37,51.94c-.19,3.92-.94,4.48-9.34,5.79-3.36.75-4.48,2.24-4.48,4.3,0,1.87,1.31,3.55,4.1,3.55h.03ZM493.56,345.8c16.26,0,27.47-8.03,34.19-16.07,2.99-3.55,1.12-6.73-1.86-6.73-.75,0-1.5.37-2.24.75-7.85,4.86-14.01,7.47-22.42,7.47-18.5,0-29.53-16.25-29.53-34.75v-.37c18.32-2.62,36.25-6.17,54.75-10.46,2.42-.56,4.1-2.43,3.54-5.23-2.99-13.45-15.31-28.21-36.62-28.21s-40.91,19.8-40.91,48.39c0,26.9,17.38,45.21,41.1,45.21h0ZM492.26,261.73c11.95,0,17.37,10.84,17.37,15.13,0,1.49-.75,2.62-2.43,2.99-10.09,2.62-22.23,5.04-34.94,7.29,2.24-17,10.65-25.41,20-25.41ZM534.48,344.31c6.16,0,12.71-.56,20.17-.56s14.39.56,20.55.56c2.81,0,4.11-1.68,4.11-3.55,0-2.05-1.31-3.92-4.49-4.3-8.4-.93-9.9-1.87-9.9-5.79-.37-18.12-.37-35.12-.37-51.94,0-15.51,0-32.51.56-70.25,0-2.43-1.5-2.99-3.55-2.43-9.71,2.43-19.05,3.92-26.71,4.67-3.18.19-4.49,1.68-4.49,3.55,0,2.05,1.31,3.55,4.86,4.11,8.22,1.49,9.15,2.43,9.34,6.73.37,18.87.37,36.62.37,53.62s0,33.82-.37,51.94c-.19,3.92-1.31,4.67-9.71,5.79-3.37.37-4.49,2.24-4.49,4.3,0,1.87,1.31,3.55,4.11,3.55h.01,0ZM621.73,345.8c16.26,0,27.47-8.03,34.19-16.07,2.99-3.55,1.12-6.73-1.87-6.73-.75,0-1.5.37-2.24.75-7.84,4.86-14,7.47-22.42,7.47-18.49,0-29.51-16.25-29.51-34.75v-.37c18.3-2.62,36.25-6.17,54.74-10.46,2.43-.56,4.11-2.43,3.55-5.23-2.99-13.45-15.32-28.21-36.62-28.21s-40.91,19.8-40.91,48.39c0,26.9,17.37,45.21,41.1,45.21h-.01ZM620.42,261.73c11.96,0,17.38,10.84,17.38,15.13,0,1.49-.75,2.62-2.43,2.99-10.09,2.62-22.23,5.04-34.94,7.29,2.24-17,10.65-25.41,19.99-25.41ZM678.71,389.34c9.34,0,18.12-6.91,35.69-43.72,11.96-26.16,20.92-49.32,30.26-73.05,2.99-7.66,4.49-9.15,9.15-10.46,3.37-.93,4.68-2.24,4.68-4.3,0-1.87-1.12-3.55-3.93-3.55-4.1,0-8.97.56-14.56.56s-10.1-.56-14.39-.56c-2.62,0-3.93,1.49-3.93,3.36,0,2.05,1.31,3.36,4.3,4.3,8.22,2.24,8.97,5.79,5.79,15.51-5.04,15.32-10.65,30.08-19.24,49.7-7.28-18.12-13.45-34.38-19.61-52.69-2.24-7.1-1.5-10.09,7.28-12.52,3.37-.93,4.49-2.05,4.49-4.11s-1.5-3.55-4.11-3.55c-5.6,0-11.4.56-19.05.56-8.23,0-14.2-.56-20-.56-2.79,0-4.1,1.68-4.1,3.55,0,2.24,1.12,3.36,4.48,4.3,4.3,1.12,5.61,2.61,8.23,9.34,10.27,25.59,19.43,48.2,31.38,78.84-8.03,14.76-14.01,18.12-22.05,19.62-6.55,1.12-10.84,5.23-10.84,10.46,0,4.3,2.99,8.97,10.09,8.97h-.01Z"/>
</svg>